<svg width="25" height="24" viewBox="0 0 25 24" fill="none" xmlns="http://www.w3.org/2000/svg">
<path fill-rule="evenodd" clip-rule="evenodd" d="M5.5 4C4.94772 4 4.5 4.44772 4.5 5V8H3.5C2.94772 8 2.5 8.44772 2.5 9V5C2.5 3.34315 3.84315 2 5.5 2H19.5C21.1569 2 22.5 3.34315 22.5 5V9V19C22.5 20.6569 21.1569 22 19.5 22H9.5H5.5C3.84315 22 2.5 20.6569 2.5 19V9C2.5 9.55228 2.94772 10 3.5 10H4.5V19C4.5 19.5523 4.94772 20 5.5 20H8.5V10H10.5V20H19.5C20.0523 20 20.5 19.5523 20.5 19V10H10.5V9C10.5 8.44772 10.0523 8 9.5 8H20.5V5C20.5 4.44772 20.0523 4 19.5 4H5.5ZM9.5 8C8.94772 8 8.5 8.44772 8.5 9V10H4.5V8H9.5Z" fill="#F39915"/>
<path d="M10.5 9C10.5 8.44772 10.0523 8 9.5 8C8.94772 8 8.5 8.44772 8.5 9V10H10.5V9Z" fill="#F39915"/>
<path d="M3.5 8C2.94772 8 2.5 8.44772 2.5 9C2.5 9.55228 2.94772 10 3.5 10H4.5V8H3.5Z" fill="#F39915"/>
</svg>
