<svg width="25" height="24" viewBox="0 0 25 24" fill="none" xmlns="http://www.w3.org/2000/svg">
<path fill-rule="evenodd" clip-rule="evenodd" d="M16.8079 3.02796C16.3249 2.97339 15.8339 2.9892 15.3502 3.07733C14.3503 3.25952 13.4296 3.74211 12.7109 4.46081C11.9922 5.1795 11.5096 6.10016 11.3274 7.10009C11.1453 8.10001 11.2721 9.13172 11.6912 10.0577C11.8628 10.4369 11.7815 10.8828 11.4872 11.1771L4.57721 18.0871C4.36692 18.2974 4.24878 18.5826 4.24878 18.88C4.24878 19.1774 4.36692 19.4626 4.57721 19.6729C4.7875 19.8832 5.07271 20.0013 5.3701 20.0013C5.66749 20.0013 5.9527 19.8832 6.16299 19.6729L13.073 12.7629C13.3673 12.4686 13.8132 12.3873 14.1924 12.5589C15.1184 12.978 16.1501 13.1048 17.15 12.9226C18.1499 12.7404 19.0706 12.2578 19.7893 11.5392C20.508 10.8205 20.9906 9.8998 21.1728 8.89987C21.2609 8.41622 21.2767 7.92514 21.2221 7.44218L18.6501 10.0142C18.2763 10.3806 17.7736 10.5858 17.2501 10.5858C16.7266 10.5858 16.224 10.3806 15.8501 10.0141L15.843 10.0071L14.2359 8.40002C13.8695 8.02616 13.6642 7.52349 13.6642 6.99998C13.6642 6.47647 13.8695 5.97384 14.236 5.59998L14.243 5.59284L16.8079 3.02796ZM14.9917 1.10972C16.3916 0.854655 17.836 1.03228 19.1324 1.61892C19.4315 1.75426 19.6451 2.02777 19.7039 2.35073C19.7627 2.67369 19.6593 3.00496 19.4272 3.23709L15.6643 6.99998L17.2501 8.58577L21.013 4.82287C21.2451 4.59075 21.5764 4.48733 21.8993 4.54618C22.2223 4.60502 22.4958 4.81863 22.6312 5.11771C23.2178 6.41409 23.3954 7.85848 23.1404 9.25838C22.8853 10.6583 22.2097 11.9472 21.2035 12.9534C20.1973 13.9595 18.9084 14.6352 17.5085 14.8902C16.341 15.103 15.1427 15.0147 14.025 14.6393L7.57721 21.0871C6.99185 21.6724 6.19793 22.0013 5.3701 22.0013C4.54227 22.0013 3.74835 21.6724 3.16299 21.0871C2.57763 20.5017 2.24878 19.7078 2.24878 18.88C2.24878 18.0522 2.57763 17.2582 3.16299 16.6729L9.61075 10.2251C9.23534 9.10743 9.14713 7.90903 9.35984 6.74158C9.6149 5.34169 10.2905 4.05277 11.2967 3.0466C12.3029 2.04042 13.5918 1.36478 14.9917 1.10972Z" fill="#F39915"/>
</svg>
