<svg width="25" height="24" viewBox="0 0 25 24" fill="none" xmlns="http://www.w3.org/2000/svg">
<path fill-rule="evenodd" clip-rule="evenodd" d="M5.75 5C5.19772 5 4.75 5.44772 4.75 6V20C4.75 20.5523 5.19772 21 5.75 21H19.75C20.3023 21 20.75 20.5523 20.75 20V6C20.75 5.44772 20.3023 5 19.75 5H5.75ZM2.75 6C2.75 4.34315 4.09315 3 5.75 3H19.75C21.4069 3 22.75 4.34315 22.75 6V20C22.75 21.6569 21.4069 23 19.75 23H5.75C4.09315 23 2.75 21.6569 2.75 20V6Z" fill="#F39915"/>
<path fill-rule="evenodd" clip-rule="evenodd" d="M16.75 1C17.3023 1 17.75 1.44772 17.75 2V6C17.75 6.55228 17.3023 7 16.75 7C16.1977 7 15.75 6.55228 15.75 6V2C15.75 1.44772 16.1977 1 16.75 1Z" fill="#F39915"/>
<path fill-rule="evenodd" clip-rule="evenodd" d="M8.75 1C9.30228 1 9.75 1.44772 9.75 2V6C9.75 6.55228 9.30228 7 8.75 7C8.19772 7 7.75 6.55228 7.75 6V2C7.75 1.44772 8.19772 1 8.75 1Z" fill="#F39915"/>
<path fill-rule="evenodd" clip-rule="evenodd" d="M2.75 10C2.75 9.44771 3.19772 9 3.75 9H21.75C22.3023 9 22.75 9.44771 22.75 10C22.75 10.5523 22.3023 11 21.75 11H3.75C3.19772 11 2.75 10.5523 2.75 10Z" fill="#F39915"/>
</svg>
